<svg version="1.1" id="layer1" xmlns="http://www.w3.org/2000/svg" xmlns:xlink="http://www.w3.org/1999/xlink" x="0px" y="0px" width="960" height="560"
   viewBox="0 0 960 560" style="enable-background:new 0 0 960 560;" xml:space="preserve">
   <style type="text/css">
     line {
	   stroke: black;
	 }
   </style>
   <!-- upper row of lots-->
   <!-- Line - 1st row of lots -->
   <line class="st1 avenue" x1="22.5" y1="15.5" x2="932.5" y2="15.5"/>
   <!-- lines 1st row -->
   <line class="st1 street" x1="22.5" y1="15.5" x2="22.5" y2="58"/>
   <line class="st1 street" x1="57.5" y1="15.5" x2="57.5" y2="58"/>
   <line class="st1 street" x1="92.5" y1="15.5" x2="92.5" y2="58"/>
   <line class="st1 street" x1="127.5" y1="15.5" x2="127.5" y2="58"/>
   <line class="st1 street" x1="162.5" y1="15.5" x2="162.5" y2="58"/>
   <line class="st1 street" x1="197.5" y1="15.5" x2="197.5" y2="58"/>
   <line class="st1 street" x1="232.5" y1="15.5" x2="232.5" y2="58"/>
   <line class="st1 street" x1="267.5" y1="15.5" x2="267.5" y2="58"/>
   <line class="st1 street" x1="302.5" y1="15.5" x2="302.5" y2="58"/>
   <line class="st1 street" x1="337.5" y1="15.5" x2="337.5" y2="58"/>
   <line class="st1 street" x1="372.5" y1="15.5" x2="372.5" y2="58"/>
   <line class="st1 street" x1="407.5" y1="15.5" x2="407.5" y2="58"/>
   <line class="st1 street" x1="442.5" y1="15.5" x2="442.5" y2="58"/>
   <line class="st1 street" x1="477.5" y1="15.5" x2="477.5" y2="58"/>
   <line class="st1 street" x1="512.5" y1="15.5" x2="512.5" y2="58"/>
   <line class="st1 street" x1="547.5" y1="15.5" x2="547.5" y2="58"/>
   <line class="st1 street" x1="582.5" y1="15.5" x2="582.5" y2="58"/>
   <line class="st1 street" x1="617.5" y1="15.5" x2="617.5" y2="58"/>
   <line class="st1 street" x1="652.5" y1="15.5" x2="652.5" y2="58"/>
   <line class="st1 street" x1="687.5" y1="15.5" x2="687.5" y2="58"/>
   <line class="st1 street" x1="722.5" y1="15.5" x2="722.5" y2="58"/>
   <line class="st1 street" x1="757.5" y1="15.5" x2="757.5" y2="58"/>
   <line class="st1 street" x1="792.5" y1="15.5" x2="792.5" y2="58"/>
   <line class="st1 street" x1="827.5" y1="15.5" x2="827.5" y2="58"/>
   <line class="st1 street" x1="862.5" y1="15.5" x2="862.5" y2="58"/>
   <line class="st1 street" x1="897.5" y1="15.5" x2="897.5" y2="58"/>
   <line class="st1 street" x1="932.5" y1="15.5" x2="932.5" y2="58"/>
   <!-- Line - 2nd row of lots  delta= 127-->
   <line class="st1 avenue" x1="22.5" y1="142.5" x2="932.5" y2="142.5"/>
   <!-- lines 2nd row upper-->
   <line class="st1 street" x1="22.5" y1="100" x2="22.5" y2="142.5"/>
   <line class="st1 street" x1="57.5" y1="100" x2="57.5" y2="142.5"/>
   <line class="st1 street" x1="92.5" y1="100" x2="92.5" y2="142.5"/>
   <line class="st1 street" x1="127.5" y1="100" x2="127.5" y2="142.5"/>
   <line class="st1 street" x1="162.5" y1="100" x2="162.5" y2="142.5"/>
   <line class="st1 street" x1="197.5" y1="100" x2="197.5" y2="142.5"/>
   <line class="st1 street" x1="232.5" y1="100" x2="232.5" y2="142.5"/>
   <line class="st1 street" x1="267.5" y1="100" x2="267.5" y2="142.5"/>
   <line class="st1 street" x1="302.5" y1="100" x2="302.5" y2="142.5"/>
   <line class="st1 street" x1="337.5" y1="100" x2="337.5" y2="142.5"/>
   <line class="st1 street" x1="372.5" y1="100" x2="372.5" y2="142.5"/>
   <line class="st1 street" x1="407.5" y1="100" x2="407.5" y2="142.5"/>
   <line class="st1 street" x1="442.5" y1="100" x2="442.5" y2="142.5"/>
   <line class="st1 street" x1="477.5" y1="100" x2="477.5" y2="142.5"/>
   <line class="st1 street" x1="512.5" y1="100" x2="512.5" y2="142.5"/>
   <line class="st1 street" x1="547.5" y1="100" x2="547.5" y2="142.5"/>
   <line class="st1 street" x1="582.5" y1="100" x2="582.5" y2="142.5"/>
   <line class="st1 street" x1="617.5" y1="100" x2="617.5" y2="142.5"/>
   <line class="st1 street" x1="652.5" y1="100" x2="652.5" y2="142.5"/>
   <line class="st1 street" x1="687.5" y1="100" x2="687.5" y2="142.5"/>
   <line class="st1 street" x1="722.5" y1="100" x2="722.5" y2="142.5"/>
   <line class="st1 street" x1="757.5" y1="100" x2="757.5" y2="142.5"/>
   <line class="st1 street" x1="792.5" y1="100" x2="792.5" y2="142.5"/>
   <line class="st1 street" x1="827.5" y1="100" x2="827.5" y2="142.5"/>
   <line class="st1 street" x1="862.5" y1="100" x2="862.5" y2="142.5"/>
   <line class="st1 street" x1="897.5" y1="100" x2="897.5" y2="142.5"/>
   <line class="st1 street" x1="932.5" y1="100" x2="932.5" y2="142.5"/>
   <!-- lines 2nd row lower-->
   <line class="st1 street" x1="22.5" y1="142.5" x2="22.5" y2="185"/>
   <line class="st1 street" x1="57.5" y1="142.5" x2="57.5" y2="185"/>
   <line class="st1 street" x1="92.5" y1="142.5" x2="92.5" y2="185"/>
   <line class="st1 street" x1="127.5" y1="142.5" x2="127.5" y2="185"/>
   <line class="st1 street" x1="162.5" y1="142.5" x2="162.5" y2="185"/>
   <line class="st1 street" x1="197.5" y1="142.5" x2="197.5" y2="185"/>
   <line class="st1 street" x1="232.5" y1="142.5" x2="232.5" y2="185"/>
   <line class="st1 street" x1="267.5" y1="142.5" x2="267.5" y2="185"/>
   <line class="st1 street" x1="302.5" y1="142.5" x2="302.5" y2="185"/>
   <line class="st1 street" x1="337.5" y1="142.5" x2="337.5" y2="185"/>
   <line class="st1 street" x1="372.5" y1="142.5" x2="372.5" y2="185"/>
   <line class="st1 street" x1="407.5" y1="142.5" x2="407.5" y2="185"/>
   <line class="st1 street" x1="442.5" y1="142.5" x2="442.5" y2="185"/>
   <line class="st1 street" x1="477.5" y1="142.5" x2="477.5" y2="185"/>
   <line class="st1 street" x1="512.5" y1="142.5" x2="512.5" y2="185"/>
   <line class="st1 street" x1="547.5" y1="142.5" x2="547.5" y2="185"/>
   <line class="st1 street" x1="582.5" y1="142.5" x2="582.5" y2="185"/>
   <line class="st1 street" x1="617.5" y1="142.5" x2="617.5" y2="185"/>
   <line class="st1 street" x1="652.5" y1="142.5" x2="652.5" y2="185"/>
   <line class="st1 street" x1="687.5" y1="142.5" x2="687.5" y2="185"/>
   <line class="st1 street" x1="722.5" y1="142.5" x2="722.5" y2="185"/>
   <line class="st1 street" x1="757.5" y1="142.5" x2="757.5" y2="185"/>
   <line class="st1 street" x1="792.5" y1="142.5" x2="792.5" y2="185"/>
   <line class="st1 street" x1="827.5" y1="142.5" x2="827.5" y2="185"/>
   <line class="st1 street" x1="862.5" y1="142.5" x2="862.5" y2="185"/>
   <line class="st1 street" x1="897.5" y1="142.5" x2="897.5" y2="185"/>
   <line class="st1 street" x1="932.5" y1="142.5" x2="932.5" y2="185"/>
   <!-- Line - 3rd row of lots -->
   <line class="st1 avenue" x1="22.5" y1="275.5" x2="932.5" y2="275.5"/>
   <!-- lines 3rd row upper-->
   <line class="st1 street" x1="22.5" y1="233" x2="22.5" y2="275.5"/>
   <line class="st1 street" x1="57.5" y1="233" x2="57.5" y2="275.5"/>
   <line class="st1 street" x1="92.5" y1="233" x2="92.5" y2="275.5"/>
   <line class="st1 street" x1="127.5" y1="233" x2="127.5" y2="275.5"/>
   <line class="st1 street" x1="162.5" y1="233" x2="162.5" y2="275.5"/>
   <line class="st1 street" x1="197.5" y1="233" x2="197.5" y2="275.5"/>
   <line class="st1 street" x1="232.5" y1="233" x2="232.5" y2="275.5"/>
   <line class="st1 street" x1="267.5" y1="233" x2="267.5" y2="275.5"/>
   <line class="st1 street" x1="302.5" y1="233" x2="302.5" y2="275.5"/>
   <line class="st1 street" x1="337.5" y1="233" x2="337.5" y2="275.5"/>
   <line class="st1 street" x1="372.5" y1="233" x2="372.5" y2="275.5"/>
   <line class="st1 street" x1="407.5" y1="233" x2="407.5" y2="275.5"/>
   <line class="st1 street" x1="442.5" y1="233" x2="442.5" y2="275.5"/>
   <line class="st1 street" x1="477.5" y1="233" x2="477.5" y2="275.5"/>
   <line class="st1 street" x1="512.5" y1="233" x2="512.5" y2="275.5"/>
   <line class="st1 street" x1="547.5" y1="233" x2="547.5" y2="275.5"/>
   <line class="st1 street" x1="582.5" y1="233" x2="582.5" y2="275.5"/>
   <line class="st1 street" x1="617.5" y1="233" x2="617.5" y2="275.5"/>
   <line class="st1 street" x1="652.5" y1="233" x2="652.5" y2="275.5"/>
   <line class="st1 street" x1="687.5" y1="233" x2="687.5" y2="275.5"/>
   <line class="st1 street" x1="722.5" y1="233" x2="722.5" y2="275.5"/>
   <line class="st1 street" x1="757.5" y1="233" x2="757.5" y2="275.5"/>
   <line class="st1 street" x1="792.5" y1="233" x2="792.5" y2="275.5"/>
   <line class="st1 street" x1="827.5" y1="233" x2="827.5" y2="275.5"/>
   <line class="st1 street" x1="862.5" y1="233" x2="862.5" y2="275.5"/>
   <line class="st1 street" x1="897.5" y1="233" x2="897.5" y2="275.5"/>
   <line class="st1 street" x1="932.5" y1="233" x2="932.5" y2="275.5"/>
   <!-- lines 3rd row lower-->
   <line class="st1 street" x1="22.5" y1="275.5" x2="22.5" y2="318"/>
   <line class="st1 street" x1="57.5" y1="275.5" x2="57.5" y2="318"/>
   <line class="st1 street" x1="92.5" y1="275.5" x2="92.5" y2="318"/>
   <line class="st1 street" x1="127.5" y1="275.5" x2="127.5" y2="318"/>
   <line class="st1 street" x1="162.5" y1="275.5" x2="162.5" y2="318"/>
   <line class="st1 street" x1="197.5" y1="275.5" x2="197.5" y2="318"/>
   <line class="st1 street" x1="232.5" y1="275.5" x2="232.5" y2="318"/>
   <line class="st1 street" x1="267.5" y1="275.5" x2="267.5" y2="318"/>
   <line class="st1 street" x1="302.5" y1="275.5" x2="302.5" y2="318"/>
   <line class="st1 street" x1="337.5" y1="275.5" x2="337.5" y2="318"/>
   <line class="st1 street" x1="372.5" y1="275.5" x2="372.5" y2="318"/>
   <line class="st1 street" x1="407.5" y1="275.5" x2="407.5" y2="318"/>
   <line class="st1 street" x1="442.5" y1="275.5" x2="442.5" y2="318"/>
   <line class="st1 street" x1="477.5" y1="275.5" x2="477.5" y2="318"/>
   <line class="st1 street" x1="512.5" y1="275.5" x2="512.5" y2="318"/>
   <line class="st1 street" x1="547.5" y1="275.5" x2="547.5" y2="318"/>
   <line class="st1 street" x1="582.5" y1="275.5" x2="582.5" y2="318"/>
   <line class="st1 street" x1="617.5" y1="275.5" x2="617.5" y2="318"/>
   <line class="st1 street" x1="652.5" y1="275.5" x2="652.5" y2="318"/>
   <line class="st1 street" x1="687.5" y1="275.5" x2="687.5" y2="318"/>
   <line class="st1 street" x1="722.5" y1="275.5" x2="722.5" y2="318"/>
   <line class="st1 street" x1="757.5" y1="275.5" x2="757.5" y2="318"/>
   <line class="st1 street" x1="792.5" y1="275.5" x2="792.5" y2="318"/>
   <line class="st1 street" x1="827.5" y1="275.5" x2="827.5" y2="318"/>
   <line class="st1 street" x1="862.5" y1="275.5" x2="862.5" y2="318"/>
   <line class="st1 street" x1="897.5" y1="275.5" x2="897.5" y2="318"/>
   <line class="st1 street" x1="932.5" y1="275.5" x2="932.5" y2="318"/>
   <!-- Line - 4th row of lots -->
   <line class="st1 avenue" x1="22.5" y1="408.5" x2="932.5" y2="408.5"/>
   <!-- lines 4th row upper-->
   <line class="st1 street" x1="22.5" y1="366" x2="22.5" y2="408.5"/>
   <line class="st1 street" x1="57.5" y1="366" x2="57.5" y2="408.5"/>
   <line class="st1 street" x1="92.5" y1="366" x2="92.5" y2="408.5"/>
   <line class="st1 street" x1="127.5" y1="366" x2="127.5" y2="408.5"/>
   <line class="st1 street" x1="162.5" y1="366" x2="162.5" y2="408.5"/>
   <line class="st1 street" x1="197.5" y1="366" x2="197.5" y2="408.5"/>
   <line class="st1 street" x1="232.5" y1="366" x2="232.5" y2="408.5"/>
   <line class="st1 street" x1="267.5" y1="366" x2="267.5" y2="408.5"/>
   <line class="st1 street" x1="302.5" y1="366" x2="302.5" y2="408.5"/>
   <line class="st1 street" x1="337.5" y1="366" x2="337.5" y2="408.5"/>
   <line class="st1 street" x1="372.5" y1="366" x2="372.5" y2="408.5"/>
   <line class="st1 street" x1="407.5" y1="366" x2="407.5" y2="408.5"/>
   <line class="st1 street" x1="442.5" y1="366" x2="442.5" y2="408.5"/>
   <line class="st1 street" x1="477.5" y1="366" x2="477.5" y2="408.5"/>
   <line class="st1 street" x1="512.5" y1="366" x2="512.5" y2="408.5"/>
   <line class="st1 street" x1="547.5" y1="366" x2="547.5" y2="408.5"/>
   <line class="st1 street" x1="582.5" y1="366" x2="582.5" y2="408.5"/>
   <line class="st1 street" x1="617.5" y1="366" x2="617.5" y2="408.5"/>
   <line class="st1 street" x1="652.5" y1="366" x2="652.5" y2="408.5"/>
   <line class="st1 street" x1="687.5" y1="366" x2="687.5" y2="408.5"/>
   <line class="st1 street" x1="722.5" y1="366" x2="722.5" y2="408.5"/>
   <line class="st1 street" x1="757.5" y1="366" x2="757.5" y2="408.5"/>
   <line class="st1 street" x1="792.5" y1="366" x2="792.5" y2="408.5"/>
   <line class="st1 street" x1="827.5" y1="366" x2="827.5" y2="408.5"/>
   <line class="st1 street" x1="862.5" y1="366" x2="862.5" y2="408.5"/>
   <line class="st1 street" x1="897.5" y1="366" x2="897.5" y2="408.5"/>
   <line class="st1 street" x1="932.5" y1="366" x2="932.5" y2="408.5"/>
   <!-- lines 4th row lower-->
   <line class="st1 street" x1="22.5" y1="408.5" x2="22.5" y2="451"/>
   <line class="st1 street" x1="57.5" y1="408.5" x2="57.5" y2="451"/>
   <line class="st1 street" x1="92.5" y1="408.5" x2="92.5" y2="451"/>
   <line class="st1 street" x1="127.5" y1="408.5" x2="127.5" y2="451"/>
   <line class="st1 street" x1="162.5" y1="408.5" x2="162.5" y2="451"/>
   <line class="st1 street" x1="197.5" y1="408.5" x2="197.5" y2="451"/>
   <line class="st1 street" x1="232.5" y1="408.5" x2="232.5" y2="451"/>
   <line class="st1 street" x1="267.5" y1="408.5" x2="267.5" y2="451"/>
   <line class="st1 street" x1="302.5" y1="408.5" x2="302.5" y2="451"/>
   <line class="st1 street" x1="337.5" y1="408.5" x2="337.5" y2="451"/>
   <line class="st1 street" x1="372.5" y1="408.5" x2="372.5" y2="451"/>
   <line class="st1 street" x1="407.5" y1="408.5" x2="407.5" y2="451"/>
   <line class="st1 street" x1="442.5" y1="408.5" x2="442.5" y2="451"/>
   <line class="st1 street" x1="477.5" y1="408.5" x2="477.5" y2="451"/>
   <line class="st1 street" x1="512.5" y1="408.5" x2="512.5" y2="451"/>
   <line class="st1 street" x1="547.5" y1="408.5" x2="547.5" y2="451"/>
   <line class="st1 street" x1="582.5" y1="408.5" x2="582.5" y2="451"/>
   <line class="st1 street" x1="617.5" y1="408.5" x2="617.5" y2="451"/>
   <line class="st1 street" x1="652.5" y1="408.5" x2="652.5" y2="451"/>
   <line class="st1 street" x1="687.5" y1="408.5" x2="687.5" y2="451"/>
   <line class="st1 street" x1="722.5" y1="408.5" x2="722.5" y2="451"/>
   <line class="st1 street" x1="757.5" y1="408.5" x2="757.5" y2="451"/>
   <line class="st1 street" x1="792.5" y1="408.5" x2="792.5" y2="451"/>
   <line class="st1 street" x1="827.5" y1="408.5" x2="827.5" y2="451"/>
   <line class="st1 street" x1="862.5" y1="408.5" x2="862.5" y2="451"/>
   <line class="st1 street" x1="897.5" y1="408.5" x2="897.5" y2="451"/>
   <line class="st1 street" x1="932.5" y1="408.5" x2="932.5" y2="451"/>
   <!-- Line - 5th row of lots -->
   <line class="st1 avenue" x1="22.5" y1="541.5" x2="932.5" y2="541.5"/>
   <!-- lines 5th row -->
   <line class="st1 street" x1="22.5" y1="499" x2="22.5" y2="541.5"/>
   <line class="st1 street" x1="57.5" y1="499" x2="57.5" y2="541.5"/>
   <line class="st1 street" x1="92.5" y1="499" x2="92.5" y2="541.5"/>
   <line class="st1 street" x1="127.5" y1="499" x2="127.5" y2="541.5"/>
   <line class="st1 street" x1="162.5" y1="499" x2="162.5" y2="541.5"/>
   <line class="st1 street" x1="197.5" y1="499" x2="197.5" y2="541.5"/>
   <line class="st1 street" x1="232.5" y1="499" x2="232.5" y2="541.5"/>
   <line class="st1 street" x1="267.5" y1="499" x2="267.5" y2="541.5"/>
   <line class="st1 street" x1="302.5" y1="499" x2="302.5" y2="541.5"/>
   <line class="st1 street" x1="337.5" y1="499" x2="337.5" y2="541.5"/>
   <line class="st1 street" x1="372.5" y1="499" x2="372.5" y2="541.5"/>
   <line class="st1 street" x1="407.5" y1="499" x2="407.5" y2="541.5"/>
   <line class="st1 street" x1="442.5" y1="499" x2="442.5" y2="541.5"/>
   <line class="st1 street" x1="477.5" y1="499" x2="477.5" y2="541.5"/>
   <line class="st1 street" x1="512.5" y1="499" x2="512.5" y2="541.5"/>
   <line class="st1 street" x1="547.5" y1="499" x2="547.5" y2="541.5"/>
   <line class="st1 street" x1="582.5" y1="499" x2="582.5" y2="541.5"/>
   <line class="st1 street" x1="617.5" y1="499" x2="617.5" y2="541.5"/>
   <line class="st1 street" x1="652.5" y1="499" x2="652.5" y2="541.5"/>
   <line class="st1 street" x1="687.5" y1="499" x2="687.5" y2="541.5"/>
   <line class="st1 street" x1="722.5" y1="499" x2="722.5" y2="541.5"/>
   <line class="st1 street" x1="757.5" y1="499" x2="757.5" y2="541.5"/>
   <line class="st1 street" x1="792.5" y1="499" x2="792.5" y2="541.5"/>
   <line class="st1 street" x1="827.5" y1="499" x2="827.5" y2="541.5"/>
   <line class="st1 street" x1="862.5" y1="499" x2="862.5" y2="541.5"/>
   <line class="st1 street" x1="897.5" y1="499" x2="897.5" y2="541.5"/>
   <line class="st1 street" x1="932.5" y1="499" x2="932.5" y2="541.5"/>
</svg>
